<mxfile host="app.diagrams.net" modified="2020-10-25T16:41:40.351Z" agent="5.0 (Windows NT 10.0; Win64; x64) AppleWebKit/537.36 (KHTML, like Gecko) Chrome/86.0.4240.111 Safari/537.36" etag="GCsptxtS3ez15hn7X9kK" version="13.8.2" type="github">
  <diagram id="6OI7xfDhPmefR2EX4nhi" name="Page-1">
    <mxGraphModel dx="1693" dy="669" grid="1" gridSize="10" guides="1" tooltips="1" connect="1" arrows="1" fold="1" page="1" pageScale="1" pageWidth="827" pageHeight="1169" math="0" shadow="0">
      <root>
        <mxCell id="0" />
        <mxCell id="1" parent="0" />
        <mxCell id="JmjcJuFU0oESs9ChOXzf-144" value="" style="ellipse;whiteSpace=wrap;html=1;aspect=fixed;" vertex="1" parent="1">
          <mxGeometry x="-32.5" y="508" width="55" height="55" as="geometry" />
        </mxCell>
        <mxCell id="JmjcJuFU0oESs9ChOXzf-4" value="부품" style="rounded=1;whiteSpace=wrap;html=1;" vertex="1" parent="1">
          <mxGeometry x="-730" y="100.25" width="120" height="60" as="geometry" />
        </mxCell>
        <mxCell id="JmjcJuFU0oESs9ChOXzf-5" value="자동차 회사" style="rounded=1;whiteSpace=wrap;html=1;" vertex="1" parent="1">
          <mxGeometry x="-175" y="100" width="120" height="60" as="geometry" />
        </mxCell>
        <mxCell id="JmjcJuFU0oESs9ChOXzf-6" value="&lt;u&gt;고유&lt;br&gt;번호&lt;/u&gt;" style="ellipse;whiteSpace=wrap;html=1;" vertex="1" parent="1">
          <mxGeometry x="-780" y="20.25" width="50" height="50" as="geometry" />
        </mxCell>
        <mxCell id="JmjcJuFU0oESs9ChOXzf-7" value="이름" style="ellipse;whiteSpace=wrap;html=1;" vertex="1" parent="1">
          <mxGeometry x="-820" y="105.25" width="50" height="50" as="geometry" />
        </mxCell>
        <mxCell id="JmjcJuFU0oESs9ChOXzf-8" value="제작&lt;br&gt;연도" style="ellipse;whiteSpace=wrap;html=1;" vertex="1" parent="1">
          <mxGeometry x="-790" y="190.25" width="50" height="50" as="geometry" />
        </mxCell>
        <mxCell id="JmjcJuFU0oESs9ChOXzf-9" value="" style="endArrow=none;html=1;entryX=0.688;entryY=0.992;entryDx=0;entryDy=0;entryPerimeter=0;" edge="1" parent="1" target="JmjcJuFU0oESs9ChOXzf-6">
          <mxGeometry width="50" height="50" relative="1" as="geometry">
            <mxPoint x="-720" y="100.25" as="sourcePoint" />
            <mxPoint x="-670" y="50.25" as="targetPoint" />
          </mxGeometry>
        </mxCell>
        <mxCell id="JmjcJuFU0oESs9ChOXzf-12" value="" style="endArrow=none;html=1;entryX=1;entryY=0.5;entryDx=0;entryDy=0;exitX=0;exitY=0.5;exitDx=0;exitDy=0;" edge="1" parent="1" source="JmjcJuFU0oESs9ChOXzf-4" target="JmjcJuFU0oESs9ChOXzf-7">
          <mxGeometry width="50" height="50" relative="1" as="geometry">
            <mxPoint x="-710" y="110.25" as="sourcePoint" />
            <mxPoint x="-730" y="80.25" as="targetPoint" />
          </mxGeometry>
        </mxCell>
        <mxCell id="JmjcJuFU0oESs9ChOXzf-13" value="" style="endArrow=none;html=1;" edge="1" parent="1" source="JmjcJuFU0oESs9ChOXzf-4" target="JmjcJuFU0oESs9ChOXzf-8">
          <mxGeometry width="50" height="50" relative="1" as="geometry">
            <mxPoint x="-720" y="140.25" as="sourcePoint" />
            <mxPoint x="-760" y="140.25" as="targetPoint" />
          </mxGeometry>
        </mxCell>
        <mxCell id="JmjcJuFU0oESs9ChOXzf-14" value="&lt;u&gt;고유&lt;br&gt;번호&lt;/u&gt;" style="ellipse;whiteSpace=wrap;html=1;" vertex="1" parent="1">
          <mxGeometry x="-35" y="20" width="50" height="50" as="geometry" />
        </mxCell>
        <mxCell id="JmjcJuFU0oESs9ChOXzf-15" value="" style="endArrow=none;html=1;entryX=0.312;entryY=0.992;entryDx=0;entryDy=0;entryPerimeter=0;" edge="1" parent="1" target="JmjcJuFU0oESs9ChOXzf-14" source="JmjcJuFU0oESs9ChOXzf-5">
          <mxGeometry width="50" height="50" relative="1" as="geometry">
            <mxPoint x="25" y="100" as="sourcePoint" />
            <mxPoint x="75" y="50" as="targetPoint" />
          </mxGeometry>
        </mxCell>
        <mxCell id="JmjcJuFU0oESs9ChOXzf-16" value="이름" style="ellipse;whiteSpace=wrap;html=1;" vertex="1" parent="1">
          <mxGeometry x="5" y="105" width="50" height="50" as="geometry" />
        </mxCell>
        <mxCell id="JmjcJuFU0oESs9ChOXzf-17" value="" style="endArrow=none;html=1;entryX=0;entryY=0.5;entryDx=0;entryDy=0;exitX=1;exitY=0.5;exitDx=0;exitDy=0;" edge="1" parent="1" target="JmjcJuFU0oESs9ChOXzf-16" source="JmjcJuFU0oESs9ChOXzf-5">
          <mxGeometry width="50" height="50" relative="1" as="geometry">
            <mxPoint x="-14.996556291390789" y="190" as="sourcePoint" />
            <mxPoint x="127.51999999999998" y="140" as="targetPoint" />
          </mxGeometry>
        </mxCell>
        <mxCell id="JmjcJuFU0oESs9ChOXzf-20" value="국가" style="ellipse;whiteSpace=wrap;html=1;" vertex="1" parent="1">
          <mxGeometry x="-35" y="180" width="50" height="50" as="geometry" />
        </mxCell>
        <mxCell id="JmjcJuFU0oESs9ChOXzf-21" value="" style="endArrow=none;html=1;entryX=0;entryY=0.5;entryDx=0;entryDy=0;exitX=0.85;exitY=1;exitDx=0;exitDy=0;exitPerimeter=0;" edge="1" parent="1" target="JmjcJuFU0oESs9ChOXzf-20" source="JmjcJuFU0oESs9ChOXzf-5">
          <mxGeometry width="50" height="50" relative="1" as="geometry">
            <mxPoint x="-95" y="205" as="sourcePoint" />
            <mxPoint x="87.51999999999998" y="215" as="targetPoint" />
          </mxGeometry>
        </mxCell>
        <mxCell id="JmjcJuFU0oESs9ChOXzf-23" value="생산" style="rhombus;whiteSpace=wrap;html=1;" vertex="1" parent="1">
          <mxGeometry x="-296" y="105.25" width="80" height="50" as="geometry" />
        </mxCell>
        <mxCell id="JmjcJuFU0oESs9ChOXzf-24" value="자동차" style="rounded=1;whiteSpace=wrap;html=1;" vertex="1" parent="1">
          <mxGeometry x="-452" y="100" width="120" height="60" as="geometry" />
        </mxCell>
        <mxCell id="JmjcJuFU0oESs9ChOXzf-25" value="&lt;u&gt;고유&lt;br&gt;번호&lt;/u&gt;" style="ellipse;whiteSpace=wrap;html=1;" vertex="1" parent="1">
          <mxGeometry x="-486" y="20" width="50" height="50" as="geometry" />
        </mxCell>
        <mxCell id="JmjcJuFU0oESs9ChOXzf-28" value="" style="endArrow=none;html=1;entryX=0.688;entryY=0.992;entryDx=0;entryDy=0;entryPerimeter=0;" edge="1" parent="1" target="JmjcJuFU0oESs9ChOXzf-25">
          <mxGeometry width="50" height="50" relative="1" as="geometry">
            <mxPoint x="-426" y="100" as="sourcePoint" />
            <mxPoint x="-376" y="50" as="targetPoint" />
          </mxGeometry>
        </mxCell>
        <mxCell id="JmjcJuFU0oESs9ChOXzf-33" value="이름" style="ellipse;whiteSpace=wrap;html=1;" vertex="1" parent="1">
          <mxGeometry x="-346" y="20" width="50" height="50" as="geometry" />
        </mxCell>
        <mxCell id="JmjcJuFU0oESs9ChOXzf-34" value="" style="endArrow=none;html=1;" edge="1" parent="1" target="JmjcJuFU0oESs9ChOXzf-33">
          <mxGeometry width="50" height="50" relative="1" as="geometry">
            <mxPoint x="-357.68421052631584" y="100" as="sourcePoint" />
            <mxPoint x="-292" y="-15" as="targetPoint" />
          </mxGeometry>
        </mxCell>
        <mxCell id="JmjcJuFU0oESs9ChOXzf-42" value="" style="endArrow=none;html=1;entryX=1;entryY=0.5;entryDx=0;entryDy=0;" edge="1" parent="1" source="JmjcJuFU0oESs9ChOXzf-5" target="JmjcJuFU0oESs9ChOXzf-23">
          <mxGeometry width="50" height="50" relative="1" as="geometry">
            <mxPoint x="-99" y="105.25" as="sourcePoint" />
            <mxPoint x="-185" y="45.25" as="targetPoint" />
          </mxGeometry>
        </mxCell>
        <mxCell id="JmjcJuFU0oESs9ChOXzf-49" value="" style="endArrow=none;html=1;entryX=0;entryY=0.5;entryDx=0;entryDy=0;" edge="1" parent="1" target="JmjcJuFU0oESs9ChOXzf-23">
          <mxGeometry width="50" height="50" relative="1" as="geometry">
            <mxPoint x="-332" y="130.25" as="sourcePoint" />
            <mxPoint x="-282" y="80.25" as="targetPoint" />
          </mxGeometry>
        </mxCell>
        <mxCell id="JmjcJuFU0oESs9ChOXzf-50" value="n" style="text;html=1;align=center;verticalAlign=middle;resizable=0;points=[];autosize=1;" vertex="1" parent="1">
          <mxGeometry x="-325" y="110.25" width="20" height="20" as="geometry" />
        </mxCell>
        <mxCell id="JmjcJuFU0oESs9ChOXzf-51" value="1" style="text;html=1;align=center;verticalAlign=middle;resizable=0;points=[];autosize=1;" vertex="1" parent="1">
          <mxGeometry x="-195" y="110.25" width="20" height="20" as="geometry" />
        </mxCell>
        <mxCell id="JmjcJuFU0oESs9ChOXzf-52" value="생산" style="rhombus;whiteSpace=wrap;html=1;" vertex="1" parent="1">
          <mxGeometry x="-573" y="105" width="80" height="50" as="geometry" />
        </mxCell>
        <mxCell id="JmjcJuFU0oESs9ChOXzf-53" value="" style="endArrow=none;html=1;entryX=1;entryY=0.5;entryDx=0;entryDy=0;" edge="1" parent="1" target="JmjcJuFU0oESs9ChOXzf-52">
          <mxGeometry width="50" height="50" relative="1" as="geometry">
            <mxPoint x="-452" y="129.89851485148517" as="sourcePoint" />
            <mxPoint x="-462" y="45" as="targetPoint" />
          </mxGeometry>
        </mxCell>
        <mxCell id="JmjcJuFU0oESs9ChOXzf-55" value="m" style="text;html=1;align=center;verticalAlign=middle;resizable=0;points=[];autosize=1;" vertex="1" parent="1">
          <mxGeometry x="-615" y="107.25" width="30" height="20" as="geometry" />
        </mxCell>
        <mxCell id="JmjcJuFU0oESs9ChOXzf-56" value="n" style="text;html=1;align=center;verticalAlign=middle;resizable=0;points=[];autosize=1;" vertex="1" parent="1">
          <mxGeometry x="-472" y="108" width="20" height="20" as="geometry" />
        </mxCell>
        <mxCell id="JmjcJuFU0oESs9ChOXzf-57" value="사용&lt;br&gt;일자" style="ellipse;whiteSpace=wrap;html=1;" vertex="1" parent="1">
          <mxGeometry x="-595" y="180" width="50" height="50" as="geometry" />
        </mxCell>
        <mxCell id="JmjcJuFU0oESs9ChOXzf-58" value="" style="endArrow=none;html=1;exitX=0.5;exitY=1;exitDx=0;exitDy=0;entryX=1;entryY=0;entryDx=0;entryDy=0;" edge="1" parent="1" target="JmjcJuFU0oESs9ChOXzf-57" source="JmjcJuFU0oESs9ChOXzf-52">
          <mxGeometry width="50" height="50" relative="1" as="geometry">
            <mxPoint x="-535" y="260" as="sourcePoint" />
            <mxPoint x="-555" y="180.25" as="targetPoint" />
          </mxGeometry>
        </mxCell>
        <mxCell id="JmjcJuFU0oESs9ChOXzf-59" value="수량" style="ellipse;whiteSpace=wrap;html=1;" vertex="1" parent="1">
          <mxGeometry x="-525" y="181" width="50" height="50" as="geometry" />
        </mxCell>
        <mxCell id="JmjcJuFU0oESs9ChOXzf-60" value="" style="endArrow=none;html=1;exitX=0.5;exitY=1;exitDx=0;exitDy=0;entryX=0;entryY=0;entryDx=0;entryDy=0;" edge="1" parent="1" target="JmjcJuFU0oESs9ChOXzf-59" source="JmjcJuFU0oESs9ChOXzf-52">
          <mxGeometry width="50" height="50" relative="1" as="geometry">
            <mxPoint x="-463" y="160" as="sourcePoint" />
            <mxPoint x="-485" y="185.25" as="targetPoint" />
          </mxGeometry>
        </mxCell>
        <mxCell id="JmjcJuFU0oESs9ChOXzf-97" value="호텔" style="rounded=1;whiteSpace=wrap;html=1;" vertex="1" parent="1">
          <mxGeometry x="-730" y="430" width="120" height="60" as="geometry" />
        </mxCell>
        <mxCell id="JmjcJuFU0oESs9ChOXzf-98" value="&lt;u&gt;사육사&lt;br&gt;&lt;/u&gt;번호" style="ellipse;whiteSpace=wrap;html=1;" vertex="1" parent="1">
          <mxGeometry x="-790" y="720" width="50" height="50" as="geometry" />
        </mxCell>
        <mxCell id="JmjcJuFU0oESs9ChOXzf-99" value="주소" style="ellipse;whiteSpace=wrap;html=1;" vertex="1" parent="1">
          <mxGeometry x="-790" y="500" width="50" height="50" as="geometry" />
        </mxCell>
        <mxCell id="JmjcJuFU0oESs9ChOXzf-100" value="" style="endArrow=none;html=1;entryX=0.688;entryY=0.992;entryDx=0;entryDy=0;entryPerimeter=0;" edge="1" parent="1" target="JmjcJuFU0oESs9ChOXzf-98">
          <mxGeometry width="50" height="50" relative="1" as="geometry">
            <mxPoint x="-715" y="800" as="sourcePoint" />
            <mxPoint x="-665" y="750" as="targetPoint" />
          </mxGeometry>
        </mxCell>
        <mxCell id="JmjcJuFU0oESs9ChOXzf-101" value="" style="endArrow=none;html=1;entryX=1;entryY=0.5;entryDx=0;entryDy=0;exitX=0.138;exitY=1.021;exitDx=0;exitDy=0;exitPerimeter=0;" edge="1" parent="1" target="JmjcJuFU0oESs9ChOXzf-99" source="JmjcJuFU0oESs9ChOXzf-97">
          <mxGeometry width="50" height="50" relative="1" as="geometry">
            <mxPoint x="-725" y="460" as="sourcePoint" />
            <mxPoint x="-725" y="410" as="targetPoint" />
          </mxGeometry>
        </mxCell>
        <mxCell id="JmjcJuFU0oESs9ChOXzf-104" value="객실" style="rounded=1;whiteSpace=wrap;html=1;" vertex="1" parent="1">
          <mxGeometry x="-452" y="430" width="120" height="60" as="geometry" />
        </mxCell>
        <mxCell id="JmjcJuFU0oESs9ChOXzf-105" value="&lt;u&gt;객실&lt;br&gt;호수&lt;br&gt;&lt;/u&gt;" style="ellipse;whiteSpace=wrap;html=1;" vertex="1" parent="1">
          <mxGeometry x="-512" y="350" width="50" height="50" as="geometry" />
        </mxCell>
        <mxCell id="JmjcJuFU0oESs9ChOXzf-106" value="수용&lt;br&gt;인원" style="ellipse;whiteSpace=wrap;html=1;" vertex="1" parent="1">
          <mxGeometry x="-332" y="350" width="50" height="50" as="geometry" />
        </mxCell>
        <mxCell id="JmjcJuFU0oESs9ChOXzf-107" value="" style="endArrow=none;html=1;entryX=0.688;entryY=0.992;entryDx=0;entryDy=0;entryPerimeter=0;" edge="1" parent="1" target="JmjcJuFU0oESs9ChOXzf-105">
          <mxGeometry width="50" height="50" relative="1" as="geometry">
            <mxPoint x="-437" y="430" as="sourcePoint" />
            <mxPoint x="-387" y="380" as="targetPoint" />
          </mxGeometry>
        </mxCell>
        <mxCell id="JmjcJuFU0oESs9ChOXzf-108" value="" style="endArrow=none;html=1;exitX=0.75;exitY=0;exitDx=0;exitDy=0;" edge="1" parent="1" target="JmjcJuFU0oESs9ChOXzf-106">
          <mxGeometry width="50" height="50" relative="1" as="geometry">
            <mxPoint x="-348.0000000000002" y="430" as="sourcePoint" />
            <mxPoint x="-326" y="400" as="targetPoint" />
          </mxGeometry>
        </mxCell>
        <mxCell id="JmjcJuFU0oESs9ChOXzf-109" value="객실&lt;br&gt;가격" style="ellipse;whiteSpace=wrap;html=1;" vertex="1" parent="1">
          <mxGeometry x="-417" y="350" width="50" height="50" as="geometry" />
        </mxCell>
        <mxCell id="JmjcJuFU0oESs9ChOXzf-110" value="" style="endArrow=none;html=1;exitX=0.75;exitY=0;exitDx=0;exitDy=0;" edge="1" parent="1" target="JmjcJuFU0oESs9ChOXzf-109">
          <mxGeometry width="50" height="50" relative="1" as="geometry">
            <mxPoint x="-391.0000000000002" y="430" as="sourcePoint" />
            <mxPoint x="-369" y="400" as="targetPoint" />
          </mxGeometry>
        </mxCell>
        <mxCell id="JmjcJuFU0oESs9ChOXzf-111" value="보유" style="rhombus;whiteSpace=wrap;html=1;" vertex="1" parent="1">
          <mxGeometry x="-573" y="435.25" width="80" height="50" as="geometry" />
        </mxCell>
        <mxCell id="JmjcJuFU0oESs9ChOXzf-112" value="" style="endArrow=none;html=1;exitX=-0.001;exitY=0.439;exitDx=0;exitDy=0;exitPerimeter=0;" edge="1" parent="1" source="JmjcJuFU0oESs9ChOXzf-104">
          <mxGeometry width="50" height="50" relative="1" as="geometry">
            <mxPoint x="-452" y="460.14851485148506" as="sourcePoint" />
            <mxPoint x="-498" y="457" as="targetPoint" />
          </mxGeometry>
        </mxCell>
        <mxCell id="JmjcJuFU0oESs9ChOXzf-114" value="" style="endArrow=none;html=1;entryX=0;entryY=0.5;entryDx=0;entryDy=0;" edge="1" parent="1" target="JmjcJuFU0oESs9ChOXzf-111">
          <mxGeometry width="50" height="50" relative="1" as="geometry">
            <mxPoint x="-609.0000000000002" y="460.25" as="sourcePoint" />
            <mxPoint x="-559" y="410.25" as="targetPoint" />
          </mxGeometry>
        </mxCell>
        <mxCell id="JmjcJuFU0oESs9ChOXzf-115" value="1" style="text;html=1;align=center;verticalAlign=middle;resizable=0;points=[];autosize=1;" vertex="1" parent="1">
          <mxGeometry x="-602" y="440.25" width="20" height="20" as="geometry" />
        </mxCell>
        <mxCell id="JmjcJuFU0oESs9ChOXzf-116" value="n" style="text;html=1;align=center;verticalAlign=middle;resizable=0;points=[];autosize=1;" vertex="1" parent="1">
          <mxGeometry x="-472" y="436" width="20" height="20" as="geometry" />
        </mxCell>
        <mxCell id="JmjcJuFU0oESs9ChOXzf-119" value="" style="endArrow=none;html=1;exitX=0.908;exitY=0.593;exitDx=0;exitDy=0;exitPerimeter=0;" edge="1" parent="1">
          <mxGeometry width="50" height="50" relative="1" as="geometry">
            <mxPoint x="-501.36" y="464.9" as="sourcePoint" />
            <mxPoint x="-452" y="464" as="targetPoint" />
          </mxGeometry>
        </mxCell>
        <mxCell id="JmjcJuFU0oESs9ChOXzf-123" value="" style="endArrow=none;html=1;entryX=0.124;entryY=1.071;entryDx=0;entryDy=0;entryPerimeter=0;exitX=0.028;exitY=0.463;exitDx=0;exitDy=0;exitPerimeter=0;" edge="1" parent="1">
          <mxGeometry width="50" height="50" relative="1" as="geometry">
            <mxPoint x="-569.76" y="128.15" as="sourcePoint" />
            <mxPoint x="-610.28" y="128.67000000000002" as="targetPoint" />
          </mxGeometry>
        </mxCell>
        <mxCell id="JmjcJuFU0oESs9ChOXzf-124" value="" style="endArrow=none;html=1;entryX=0.124;entryY=1.071;entryDx=0;entryDy=0;entryPerimeter=0;exitX=0.028;exitY=0.463;exitDx=0;exitDy=0;exitPerimeter=0;" edge="1" parent="1">
          <mxGeometry width="50" height="50" relative="1" as="geometry">
            <mxPoint x="-569.76" y="132.15" as="sourcePoint" />
            <mxPoint x="-610.28" y="132.67000000000002" as="targetPoint" />
          </mxGeometry>
        </mxCell>
        <mxCell id="JmjcJuFU0oESs9ChOXzf-125" value="고객" style="rounded=1;whiteSpace=wrap;html=1;" vertex="1" parent="1">
          <mxGeometry x="-175" y="430" width="120" height="60" as="geometry" />
        </mxCell>
        <mxCell id="JmjcJuFU0oESs9ChOXzf-126" value="&lt;u&gt;주민&lt;br&gt;등록번호&lt;/u&gt;" style="ellipse;whiteSpace=wrap;html=1;" vertex="1" parent="1">
          <mxGeometry x="-36" y="350" width="56" height="50" as="geometry" />
        </mxCell>
        <mxCell id="JmjcJuFU0oESs9ChOXzf-127" value="" style="endArrow=none;html=1;entryX=0.312;entryY=0.992;entryDx=0;entryDy=0;entryPerimeter=0;" edge="1" parent="1" target="JmjcJuFU0oESs9ChOXzf-126">
          <mxGeometry width="50" height="50" relative="1" as="geometry">
            <mxPoint x="-68.51655629139077" y="430" as="sourcePoint" />
            <mxPoint x="74" y="380" as="targetPoint" />
          </mxGeometry>
        </mxCell>
        <mxCell id="JmjcJuFU0oESs9ChOXzf-128" value="이름" style="ellipse;whiteSpace=wrap;html=1;" vertex="1" parent="1">
          <mxGeometry x="4" y="435" width="50" height="50" as="geometry" />
        </mxCell>
        <mxCell id="JmjcJuFU0oESs9ChOXzf-129" value="" style="endArrow=none;html=1;entryX=0;entryY=0.5;entryDx=0;entryDy=0;exitX=1;exitY=0.5;exitDx=0;exitDy=0;" edge="1" parent="1" target="JmjcJuFU0oESs9ChOXzf-128">
          <mxGeometry width="50" height="50" relative="1" as="geometry">
            <mxPoint x="-56" y="460" as="sourcePoint" />
            <mxPoint x="126.51999999999998" y="470" as="targetPoint" />
          </mxGeometry>
        </mxCell>
        <mxCell id="JmjcJuFU0oESs9ChOXzf-130" value="연락처" style="ellipse;whiteSpace=wrap;html=1;" vertex="1" parent="1">
          <mxGeometry x="-30" y="510" width="50" height="50" as="geometry" />
        </mxCell>
        <mxCell id="JmjcJuFU0oESs9ChOXzf-131" value="" style="endArrow=none;html=1;entryX=-0.04;entryY=0.326;entryDx=0;entryDy=0;exitX=0.85;exitY=1;exitDx=0;exitDy=0;exitPerimeter=0;entryPerimeter=0;" edge="1" parent="1" target="JmjcJuFU0oESs9ChOXzf-130">
          <mxGeometry width="50" height="50" relative="1" as="geometry">
            <mxPoint x="-74" y="490" as="sourcePoint" />
            <mxPoint x="86.51999999999998" y="545" as="targetPoint" />
          </mxGeometry>
        </mxCell>
        <mxCell id="JmjcJuFU0oESs9ChOXzf-132" value="예약" style="rhombus;whiteSpace=wrap;html=1;" vertex="1" parent="1">
          <mxGeometry x="-296.5" y="435" width="80" height="50" as="geometry" />
        </mxCell>
        <mxCell id="JmjcJuFU0oESs9ChOXzf-133" value="" style="endArrow=none;html=1;entryX=1;entryY=0.5;entryDx=0;entryDy=0;" edge="1" parent="1" target="JmjcJuFU0oESs9ChOXzf-132">
          <mxGeometry width="50" height="50" relative="1" as="geometry">
            <mxPoint x="-175.5" y="459.89851485148506" as="sourcePoint" />
            <mxPoint x="-185.5" y="375" as="targetPoint" />
          </mxGeometry>
        </mxCell>
        <mxCell id="JmjcJuFU0oESs9ChOXzf-134" value="" style="endArrow=none;html=1;" edge="1" parent="1">
          <mxGeometry width="50" height="50" relative="1" as="geometry">
            <mxPoint x="-332" y="456" as="sourcePoint" />
            <mxPoint x="-290" y="456" as="targetPoint" />
          </mxGeometry>
        </mxCell>
        <mxCell id="JmjcJuFU0oESs9ChOXzf-135" value="n" style="text;html=1;align=center;verticalAlign=middle;resizable=0;points=[];autosize=1;" vertex="1" parent="1">
          <mxGeometry x="-327.5" y="433" width="20" height="20" as="geometry" />
        </mxCell>
        <mxCell id="JmjcJuFU0oESs9ChOXzf-136" value="1" style="text;html=1;align=center;verticalAlign=middle;resizable=0;points=[];autosize=1;" vertex="1" parent="1">
          <mxGeometry x="-195.5" y="440" width="20" height="20" as="geometry" />
        </mxCell>
        <mxCell id="JmjcJuFU0oESs9ChOXzf-137" value="&lt;u&gt;예약&lt;br&gt;번호&lt;/u&gt;" style="ellipse;whiteSpace=wrap;html=1;" vertex="1" parent="1">
          <mxGeometry x="-355.5" y="520" width="50" height="50" as="geometry" />
        </mxCell>
        <mxCell id="JmjcJuFU0oESs9ChOXzf-138" value="" style="endArrow=none;html=1;exitX=0.5;exitY=1;exitDx=0;exitDy=0;entryX=1;entryY=0;entryDx=0;entryDy=0;" edge="1" parent="1" target="JmjcJuFU0oESs9ChOXzf-137">
          <mxGeometry width="50" height="50" relative="1" as="geometry">
            <mxPoint x="-256.5" y="485" as="sourcePoint" />
            <mxPoint x="-278.5" y="510.25" as="targetPoint" />
          </mxGeometry>
        </mxCell>
        <mxCell id="JmjcJuFU0oESs9ChOXzf-139" value="입실일" style="ellipse;whiteSpace=wrap;html=1;" vertex="1" parent="1">
          <mxGeometry x="-290" y="520" width="50" height="50" as="geometry" />
        </mxCell>
        <mxCell id="JmjcJuFU0oESs9ChOXzf-140" value="" style="endArrow=none;html=1;exitX=0.5;exitY=1;exitDx=0;exitDy=0;entryX=0.5;entryY=0;entryDx=0;entryDy=0;" edge="1" parent="1" target="JmjcJuFU0oESs9ChOXzf-139">
          <mxGeometry width="50" height="50" relative="1" as="geometry">
            <mxPoint x="-256.5" y="485" as="sourcePoint" />
            <mxPoint x="-208.5" y="515.25" as="targetPoint" />
          </mxGeometry>
        </mxCell>
        <mxCell id="JmjcJuFU0oESs9ChOXzf-141" value="투숙&lt;br&gt;인원" style="ellipse;whiteSpace=wrap;html=1;" vertex="1" parent="1">
          <mxGeometry x="-225" y="520" width="50" height="50" as="geometry" />
        </mxCell>
        <mxCell id="JmjcJuFU0oESs9ChOXzf-142" value="" style="endArrow=none;html=1;exitX=0.5;exitY=1;exitDx=0;exitDy=0;entryX=0.5;entryY=0;entryDx=0;entryDy=0;" edge="1" parent="1" target="JmjcJuFU0oESs9ChOXzf-141" source="JmjcJuFU0oESs9ChOXzf-132">
          <mxGeometry width="50" height="50" relative="1" as="geometry">
            <mxPoint x="-191" y="485" as="sourcePoint" />
            <mxPoint x="-143" y="515.25" as="targetPoint" />
          </mxGeometry>
        </mxCell>
        <mxCell id="JmjcJuFU0oESs9ChOXzf-143" value="" style="endArrow=none;html=1;entryX=0.081;entryY=0.58;entryDx=0;entryDy=0;entryPerimeter=0;exitX=1.003;exitY=0.561;exitDx=0;exitDy=0;exitPerimeter=0;" edge="1" parent="1" source="JmjcJuFU0oESs9ChOXzf-104" target="JmjcJuFU0oESs9ChOXzf-132">
          <mxGeometry width="50" height="50" relative="1" as="geometry">
            <mxPoint x="-332.5" y="465" as="sourcePoint" />
            <mxPoint x="-300" y="464" as="targetPoint" />
          </mxGeometry>
        </mxCell>
        <mxCell id="JmjcJuFU0oESs9ChOXzf-147" value="" style="shape=callout;whiteSpace=wrap;html=1;perimeter=calloutPerimeter;position2=1;rotation=-180;base=15;" vertex="1" parent="1">
          <mxGeometry x="40" y="540" width="170" height="80" as="geometry" />
        </mxCell>
        <mxCell id="JmjcJuFU0oESs9ChOXzf-148" value="예약 고객만 관리&lt;br&gt;동반 고객은 관리하지 않음" style="text;html=1;strokeColor=none;fillColor=none;align=center;verticalAlign=middle;whiteSpace=wrap;rounded=0;" vertex="1" parent="1">
          <mxGeometry x="40" y="585" width="170" height="20" as="geometry" />
        </mxCell>
        <mxCell id="JmjcJuFU0oESs9ChOXzf-149" value="사육사" style="rounded=1;whiteSpace=wrap;html=1;" vertex="1" parent="1">
          <mxGeometry x="-730" y="800" width="120" height="60" as="geometry" />
        </mxCell>
        <mxCell id="JmjcJuFU0oESs9ChOXzf-150" value="이름" style="ellipse;whiteSpace=wrap;html=1;" vertex="1" parent="1">
          <mxGeometry x="-820" y="805" width="50" height="50" as="geometry" />
        </mxCell>
        <mxCell id="JmjcJuFU0oESs9ChOXzf-151" value="" style="endArrow=none;html=1;entryX=1;entryY=0.5;entryDx=0;entryDy=0;exitX=0;exitY=0.5;exitDx=0;exitDy=0;" edge="1" parent="1" target="JmjcJuFU0oESs9ChOXzf-150" source="JmjcJuFU0oESs9ChOXzf-149">
          <mxGeometry width="50" height="50" relative="1" as="geometry">
            <mxPoint x="-745" y="880" as="sourcePoint" />
            <mxPoint x="-695" y="830" as="targetPoint" />
          </mxGeometry>
        </mxCell>
        <mxCell id="JmjcJuFU0oESs9ChOXzf-152" value="직급" style="ellipse;whiteSpace=wrap;html=1;" vertex="1" parent="1">
          <mxGeometry x="-790" y="880" width="50" height="50" as="geometry" />
        </mxCell>
        <mxCell id="JmjcJuFU0oESs9ChOXzf-153" value="" style="endArrow=none;html=1;entryX=1;entryY=0.5;entryDx=0;entryDy=0;exitX=0.192;exitY=1.027;exitDx=0;exitDy=0;exitPerimeter=0;" edge="1" parent="1" target="JmjcJuFU0oESs9ChOXzf-152" source="JmjcJuFU0oESs9ChOXzf-149">
          <mxGeometry width="50" height="50" relative="1" as="geometry">
            <mxPoint x="-700" y="905" as="sourcePoint" />
            <mxPoint x="-665" y="905" as="targetPoint" />
          </mxGeometry>
        </mxCell>
        <mxCell id="JmjcJuFU0oESs9ChOXzf-154" value="동물" style="rounded=1;whiteSpace=wrap;html=1;" vertex="1" parent="1">
          <mxGeometry x="-452" y="800" width="120" height="60" as="geometry" />
        </mxCell>
        <mxCell id="JmjcJuFU0oESs9ChOXzf-155" value="&lt;u&gt;동물&lt;br&gt;번호&lt;br&gt;&lt;/u&gt;" style="ellipse;whiteSpace=wrap;html=1;" vertex="1" parent="1">
          <mxGeometry x="-472" y="720" width="50" height="50" as="geometry" />
        </mxCell>
        <mxCell id="JmjcJuFU0oESs9ChOXzf-156" value="수용&lt;br&gt;인원" style="ellipse;whiteSpace=wrap;html=1;" vertex="1" parent="1">
          <mxGeometry x="-355.5" y="720" width="50" height="50" as="geometry" />
        </mxCell>
        <mxCell id="JmjcJuFU0oESs9ChOXzf-157" value="" style="endArrow=none;html=1;entryX=0.688;entryY=0.992;entryDx=0;entryDy=0;entryPerimeter=0;" edge="1" parent="1" target="JmjcJuFU0oESs9ChOXzf-155">
          <mxGeometry width="50" height="50" relative="1" as="geometry">
            <mxPoint x="-411" y="800" as="sourcePoint" />
            <mxPoint x="-361" y="750" as="targetPoint" />
          </mxGeometry>
        </mxCell>
        <mxCell id="JmjcJuFU0oESs9ChOXzf-158" value="" style="endArrow=none;html=1;exitX=0.75;exitY=0;exitDx=0;exitDy=0;" edge="1" parent="1" target="JmjcJuFU0oESs9ChOXzf-156">
          <mxGeometry width="50" height="50" relative="1" as="geometry">
            <mxPoint x="-371.5000000000002" y="800" as="sourcePoint" />
            <mxPoint x="-349.5" y="770" as="targetPoint" />
          </mxGeometry>
        </mxCell>
        <mxCell id="JmjcJuFU0oESs9ChOXzf-163" value="종" style="ellipse;whiteSpace=wrap;html=1;" vertex="1" parent="1">
          <mxGeometry x="-475.25" y="900" width="50" height="50" as="geometry" />
        </mxCell>
        <mxCell id="JmjcJuFU0oESs9ChOXzf-164" value="출생일" style="ellipse;whiteSpace=wrap;html=1;" vertex="1" parent="1">
          <mxGeometry x="-417" y="900" width="50" height="50" as="geometry" />
        </mxCell>
        <mxCell id="JmjcJuFU0oESs9ChOXzf-165" value="" style="endArrow=none;html=1;entryX=0.768;entryY=0.07;entryDx=0;entryDy=0;entryPerimeter=0;" edge="1" parent="1" target="JmjcJuFU0oESs9ChOXzf-163">
          <mxGeometry width="50" height="50" relative="1" as="geometry">
            <mxPoint x="-411" y="860" as="sourcePoint" />
            <mxPoint x="-440" y="910" as="targetPoint" />
          </mxGeometry>
        </mxCell>
        <mxCell id="JmjcJuFU0oESs9ChOXzf-166" value="" style="endArrow=none;html=1;exitX=0.5;exitY=1;exitDx=0;exitDy=0;" edge="1" parent="1" target="JmjcJuFU0oESs9ChOXzf-164" source="JmjcJuFU0oESs9ChOXzf-154">
          <mxGeometry width="50" height="50" relative="1" as="geometry">
            <mxPoint x="-431.8544599106352" y="860" as="sourcePoint" />
            <mxPoint x="-410.75" y="970" as="targetPoint" />
          </mxGeometry>
        </mxCell>
        <mxCell id="JmjcJuFU0oESs9ChOXzf-167" value="성별" style="ellipse;whiteSpace=wrap;html=1;" vertex="1" parent="1">
          <mxGeometry x="-355" y="900" width="50" height="50" as="geometry" />
        </mxCell>
        <mxCell id="JmjcJuFU0oESs9ChOXzf-168" value="" style="endArrow=none;html=1;" edge="1" parent="1" target="JmjcJuFU0oESs9ChOXzf-167">
          <mxGeometry width="50" height="50" relative="1" as="geometry">
            <mxPoint x="-370" y="859" as="sourcePoint" />
            <mxPoint x="-348.75" y="970" as="targetPoint" />
          </mxGeometry>
        </mxCell>
        <mxCell id="JmjcJuFU0oESs9ChOXzf-169" value="사육" style="rhombus;whiteSpace=wrap;html=1;" vertex="1" parent="1">
          <mxGeometry x="-573" y="805" width="80" height="50" as="geometry" />
        </mxCell>
        <mxCell id="JmjcJuFU0oESs9ChOXzf-170" value="" style="endArrow=none;html=1;exitX=-0.001;exitY=0.439;exitDx=0;exitDy=0;exitPerimeter=0;" edge="1" parent="1">
          <mxGeometry width="50" height="50" relative="1" as="geometry">
            <mxPoint x="-452.1200000000001" y="826.0899999999999" as="sourcePoint" />
            <mxPoint x="-498" y="826.75" as="targetPoint" />
          </mxGeometry>
        </mxCell>
        <mxCell id="JmjcJuFU0oESs9ChOXzf-171" value="" style="endArrow=none;html=1;entryX=0;entryY=0.5;entryDx=0;entryDy=0;" edge="1" parent="1" target="JmjcJuFU0oESs9ChOXzf-169">
          <mxGeometry width="50" height="50" relative="1" as="geometry">
            <mxPoint x="-609.0000000000002" y="830" as="sourcePoint" />
            <mxPoint x="-559" y="780" as="targetPoint" />
          </mxGeometry>
        </mxCell>
        <mxCell id="JmjcJuFU0oESs9ChOXzf-172" value="m" style="text;html=1;align=center;verticalAlign=middle;resizable=0;points=[];autosize=1;" vertex="1" parent="1">
          <mxGeometry x="-610" y="809" width="30" height="20" as="geometry" />
        </mxCell>
        <mxCell id="JmjcJuFU0oESs9ChOXzf-173" value="n" style="text;html=1;align=center;verticalAlign=middle;resizable=0;points=[];autosize=1;" vertex="1" parent="1">
          <mxGeometry x="-472" y="805.75" width="20" height="20" as="geometry" />
        </mxCell>
        <mxCell id="JmjcJuFU0oESs9ChOXzf-174" value="" style="endArrow=none;html=1;exitX=0.908;exitY=0.593;exitDx=0;exitDy=0;exitPerimeter=0;" edge="1" parent="1">
          <mxGeometry width="50" height="50" relative="1" as="geometry">
            <mxPoint x="-501.3600000000001" y="834.6500000000001" as="sourcePoint" />
            <mxPoint x="-452" y="833.75" as="targetPoint" />
          </mxGeometry>
        </mxCell>
      </root>
    </mxGraphModel>
  </diagram>
</mxfile>
